<?xml version="1.0" encoding="UTF-8"?>
<svg id="Layer_1" data-name="Layer 1" xmlns="http://www.w3.org/2000/svg" viewBox="0 0 130 40">
  <defs>
    <style>
      .cls-1 {
        fill: #fff;
        stroke-width: 0px;
      }
    </style>
  </defs>
  <path class="cls-1" d="m9.03.23L.83,8.56c-.53.51-.83,1.22-.83,1.95v28.76c0,.65.78.97,1.23.51l8.33-8.36c.54-.54.84-1.27.84-2.03V.82c0-.72-.86-1.09-1.38-.59Z"/>
  <path class="cls-1" d="m32.19,11.77c-1.93,0-3.32.71-4.28,1.86V5.6h-3.38v22.23h3.17v-1.94c.96,1.21,2.56,2.24,4.5,2.24,4.06,0,7.09-3.56,7.09-8.12,0-4.56-3.03-8.25-7.09-8.25Zm-.63,13.4c-1.67,0-3-1.11-3.66-2.75-.3-.74-.47-1.59-.47-2.49s.17-1.75.47-2.49c.66-1.64,1.99-2.75,3.66-2.75,2.43,0,4.26,2.35,4.26,5.24s-1.83,5.24-4.26,5.24Z"/>
  <path class="cls-1" d="m45.51,12.03h-3.38v15.8h3.38v-15.8Z"/>
  <path class="cls-1" d="m43.77,9.44c1.2,0,2.17-.98,2.17-2.18s-.97-2.18-2.17-2.18-2.17.98-2.17,2.18.97,2.18,2.17,2.18Z"/>
  <path class="cls-1" d="m49.76,27.82h3.38l.06-10.91.03-4.88h-3.44l-.03,15.79Z"/>
  <path class="cls-1" d="m59.94,15.21s-1.97.07-3.28.91c-3.49,2.24-3.51,5.53-3.51,8.57,0,1.5-1.7,4.62-1.72,1.54-.01-1.58-.8-1.16-.18-4.19.62-3.03,1.88-7.61,5.79-9.68,1.47-.78,2.89-.6,2.89-.6l.02,3.45Z"/>
  <path class="cls-1" d="m119.37,5.6h-3.38v22.22h3.38V5.6Z"/>
  <path class="cls-1" d="m116.75,25.41s1.13-12.23,11.78-13.64l.04,3.45c-3.88.37-9.18,3.42-9.18,9.63,0,.97-.51,1.18-.66,2.3-1.82-1.19-1.97-1.74-1.97-1.74Z"/>
  <path class="cls-1" d="m121.22,17.64l5.05,10.18h3.73l-6.24-11.55-2.54,1.36Z"/>
  <path class="cls-1" d="m70.07,11.77c-1.93,0-3.32.71-4.28,1.86V5.6h-3.38v22.23h3.17v-1.94c.96,1.21,2.56,2.24,4.5,2.24,4.06,0,7.09-3.56,7.09-8.12,0-4.56-3.02-8.25-7.09-8.25Zm-.62,13.4c-1.67,0-3-1.11-3.66-2.75-.3-.74-.47-1.59-.47-2.49s.17-1.75.47-2.49c.66-1.64,1.99-2.75,3.66-2.75,2.43,0,4.26,2.35,4.26,5.24s-1.83,5.24-4.26,5.24Z"/>
  <path class="cls-1" d="m79.53,20.02c0,4.56,3.02,8.12,7.09,8.12,1.93,0,3.53-1.03,4.5-2.24l.02,1.93h3.15v-15.8h-3.38v1.59c-.96-1.15-2.35-1.86-4.28-1.86-4.07,0-7.09,3.69-7.09,8.25Zm3.45-.09c0-2.9,1.83-5.24,4.26-5.24,1.67,0,3,1.11,3.66,2.75.3.74.47,1.59.47,2.49s-.17,1.75-.47,2.49c-.66,1.64-1.99,2.75-3.66,2.75-2.43,0-4.26-2.34-4.26-5.24Z"/>
  <path class="cls-1" d="m109.06,18.8c0,4.24,3.4,7.93,3.4.27,0-5.17-3.13-7.24-6.26-7.24-3.67,0-5.99,3.55-6.53,7.11-.54,3.14.14,5.19.14,6.7,0,3.14,1.77-1.37,1.77-2.87,0-5.19,1.23-8.06,4.22-8.06,1.63,0,3.26.77,3.26,4.1Z"/>
  <path class="cls-1" d="m98.17,27.83h3.4v-15.8h-3.26l-.14,15.8Z"/>
  <path class="cls-1" d="m112.46,27.83v-8.94l-3.4-.14v9.08h3.4Z"/>
</svg>